<?xml version="1.0" encoding="UTF-8"?>
<svg width="110px" height="153px" viewBox="0 0 110 153" version="1.1" xmlns="http://www.w3.org/2000/svg" xmlns:xlink="http://www.w3.org/1999/xlink">
    <title>63add1340d735e940d087296_Random name tring</title>
    <g id="Page-1" stroke="none" stroke-width="1" fill="none" fill-rule="evenodd">
        <g id="63add1340d735e940d087296_Random-name-tring" transform="translate(0.129761, 0.631836)">
            <path d="M69.206139,95.3898642 C84.384839,92.6716642 113.115239,82.0970642 106.610239,61.5457642 C105.662239,58.4196642 101.406239,52.0040642 91.974039,51.3515642 C92.516339,44.1477642 89.941439,28.3537642 75.304939,22.8080642 C75.711139,21.7207642 76.768539,19.6275642 77.744239,19.9537642 C78.964039,20.3615642 91.567439,17.0993642 83.435939,4.05097416 C81.132339,1.74030416 74.328839,-0.516010841 65.546939,8.94410416 C63.649539,11.1188642 59.530039,16.7731642 58.228739,21.9925642 C54.705339,22.2643642 47.089039,23.2158642 44.812139,24.8468642 C37.358239,18.1867642 19.848739,8.04705416 9.44033901,20.7692642 C7.81429901,23.7595642 6.75726901,30.4740642 15.539139,33.4099642 C16.894239,33.8177642 20.905739,33.8177642 26.109939,30.5555642 C27.504839,30.5555642 29.833439,30.9876642 32.208339,32.2966642 C23.399239,42.5900642 10.741639,68.0698642 30.582239,87.6425642 C27.600639,88.9175642 20.417739,92.7225642 15.539139,97.7439642 C13.532339,91.7286642 8.57410901,79.8553642 4.79456901,80.4833642 C1.01503901,81.1108642 1.90712901,90.1594642 2.82593901,94.6054642 C3.95461901,98.9205642 6.85775901,108.414164 9.44033901,111.866164 C9.89443901,122.981164 15.082939,145.445164 32.208339,146.387164 C35.406939,146.256164 40.937639,144.034164 37.472639,136.188164 L46.528039,133.834164 C45.609639,137.495164 44.165939,145.132164 45.740639,146.387164 C47.709339,147.956164 56.764639,151.487164 61.489339,147.564164 C66.213939,143.641164 68.687139,138.541164 63.457939,136.188164 C63.047539,136.003164 62.658239,135.847164 62.288939,135.717164 C64.914339,136.537164 67.664439,137.385164 68.969939,137.757164 C71.725939,136.972164 77.237939,133.834164 77.237939,127.557164 C77.237939,121.281164 71.463439,122.327164 68.576039,123.634164 C71.489739,117.881164 75.694539,104.177164 69.206139,95.3898642 Z" id="Path" fill="#FFDE59" fill-rule="nonzero"></path>
            <path d="M81.853139,5.34574416 C83.642839,8.28130416 84.167339,10.4704642 84.124939,12.0449642 C84.083039,13.6130642 83.475439,14.7651642 82.634139,15.6467642 C81.760339,16.5617642 80.617239,17.1952642 79.589439,17.5743642 C79.082339,17.7615642 78.641839,17.8721642 78.329739,17.9251642 C78.231839,17.9418642 78.156739,17.9510642 78.104139,17.9559642 C77.158639,17.7438642 76.353039,18.0993642 75.859939,18.4393642 C75.336339,18.8004642 74.938539,19.2834642 74.659139,19.6787642 C74.087239,20.4881642 73.648739,21.4566642 73.409239,22.0968642 L72.700739,23.9920642 L74.586239,24.7065642 C81.289239,27.2462642 85.237939,32.1149642 87.475039,37.2695642 C89.732339,42.4703642 90.205139,47.8827642 89.955339,51.2001642 L89.802339,53.2357642 L91.829439,53.3756642 C100.278239,53.9599642 103.923239,59.6635642 104.673239,62.1384642 L104.677239,62.1498642 L104.681239,62.1613642 C106.144239,66.7846642 105.617239,70.7439642 103.845239,74.1936642 C102.040239,77.7060642 98.880139,80.8058642 94.911939,83.4711642 C86.959439,88.8122642 76.279239,92.0643642 68.846139,93.3957642 L65.637739,93.9702642 L67.579239,96.5994642 C70.391639,100.409164 70.981439,105.427164 70.406039,110.418164 C69.833239,115.387164 68.136339,120.021164 66.771039,122.717164 L64.170239,127.853164 L69.399839,125.484164 C70.682439,124.903164 72.386139,124.502164 73.591139,124.742164 C74.126639,124.849164 74.461139,125.059164 74.685839,125.352164 C74.923339,125.662164 75.213339,126.292164 75.213339,127.559164 C75.213339,130.035164 74.146139,131.888164 72.730839,133.258164 C71.488939,134.460164 70.020639,135.241164 68.931739,135.639164 C67.522439,135.224164 65.188239,134.502164 62.916439,133.793164 C62.599739,133.682164 62.291939,133.586164 61.992639,133.504164 C61.164539,133.244164 60.367839,132.994164 59.655039,132.769164 L60.237639,122.973164 L56.216439,122.629164 L54.752339,135.967164 L58.470439,137.263164 C58.419539,137.345164 58.389839,137.377164 58.391939,137.380164 C58.401739,137.390164 58.966939,136.893164 60.867339,137.399164 L61.646639,137.643164 C61.950239,137.751164 62.276639,137.882164 62.626439,138.039164 C63.636839,138.494164 64.040539,138.973164 64.206339,139.309164 C64.367439,139.635164 64.433139,140.086164 64.252139,140.759164 C63.858639,142.218164 62.439439,144.141164 60.197339,146.003164 C58.547139,147.373164 55.878539,147.600164 52.950339,147.044164 C51.546939,146.778164 50.212139,146.354164 49.122539,145.908164 C48.191439,145.528164 47.531239,145.169164 47.175539,144.934164 C47.139439,144.797164 47.100839,144.577164 47.076739,144.259164 C47.019039,143.492164 47.065639,142.449164 47.199239,141.238164 C47.465039,138.835164 48.034139,136.106164 48.479339,134.331164 L49.311139,131.016164 L34.656439,134.825164 L35.621939,137.011164 C37.157639,140.489164 36.474139,142.088164 35.812739,142.849164 C34.992239,143.793164 33.504039,144.286164 32.212139,144.359164 C24.736139,143.905164 19.696039,138.812164 16.376939,132.047164 C13.040939,125.246164 11.670139,117.148164 11.451339,111.784164 L11.425539,111.154164 L11.048139,110.649164 C9.96443901,109.201164 8.67925901,106.242164 7.48272901,102.878164 C6.32520901,99.6251642 5.34068901,96.2585642 4.78566901,94.1436642 C4.34937901,92.0147642 3.93554901,88.8529642 4.05850901,86.2085642 C4.12125901,84.8597642 4.31757901,83.8137642 4.60928901,83.1362642 C4.83188901,82.6201642 5.01038901,82.5146642 5.08331901,82.4917642 C5.10875901,82.5035642 5.49501901,82.5731642 6.29637901,83.4457642 C7.15667901,84.3823642 8.09964901,85.8247642 9.05067901,87.5890642 C10.939639,91.0934642 12.637739,95.4474642 13.619239,98.3896642 L14.669139,101.537164 L16.977339,99.1612642 C21.596839,94.4073642 28.510639,90.7308642 31.366639,89.5093642 L34.143839,88.3221642 L31.990339,86.1974642 C22.625439,76.9593642 20.942639,66.4106642 22.633139,56.8456642 C24.194739,48.0090642 28.645039,40.0455642 32.628439,34.9689642 C34.074739,36.0344642 35.455739,37.5333642 36.496239,39.6202642 L40.212539,38.0624642 C39.864839,37.0295642 39.117339,35.5299642 37.954339,34.0973642 C36.812539,32.6912642 35.188539,31.2502642 33.032939,30.4441642 C30.408439,29.0302642 27.808839,28.5297642 26.103939,28.5297642 L25.525639,28.5297642 L25.035439,28.8371642 C20.218839,31.8563642 16.830239,31.6675642 16.134039,31.4756642 C12.283639,30.1789642 10.956139,28.2220642 10.533439,26.5983642 C10.089039,24.8923642 10.522339,23.0900642 11.121539,21.9039642 C15.642639,16.5015642 21.629539,15.8658642 27.706239,17.4996642 C33.918739,19.1699642 39.887339,23.1669642 43.464639,26.3632642 L44.667539,27.4379642 L45.978139,26.4990642 C46.261339,26.2959642 46.894839,26.0064642 47.938739,25.6970642 C48.932139,25.4026642 50.129939,25.1374642 51.404939,24.9068642 C53.952239,24.4459642 56.667139,24.1474642 58.377539,24.0155642 L59.827639,23.9036642 L60.180839,22.4865642 C61.359939,17.7552642 65.202239,12.4171642 67.038639,10.3051642 C71.195539,5.83533416 74.664639,4.36418416 77.128139,4.10109416 C79.451639,3.85296416 81.066239,4.65131416 81.853139,5.34574416 Z M28.965539,33.0977642 C24.791639,38.6009642 20.294739,46.8769642 18.658539,56.1371642 C16.902339,66.0727642 18.449539,77.1730642 27.188939,87.0132642 C24.191739,88.5528642 20.016139,91.0446642 16.398639,94.1618642 C15.385639,91.4805642 14.057739,88.3624642 12.600439,85.6585642 C11.588739,83.7815642 10.458339,81.9973642 9.26310901,80.6960642 C8.18360901,79.5211642 6.50668901,78.1444642 4.45918901,78.4844642 C2.58722901,78.7952642 1.49203901,80.1635642 0.904799015,81.5254642 C0.329852015,82.8597642 0.0979250148,84.4718642 0.0262690148,86.0194642 C-0.119163385,89.1464642 0.365045015,92.7020642 0.843741015,95.0192642 L0.854339015,95.0709642 L0.867909015,95.1222642 C1.44412901,97.3257642 2.46892901,100.835164 3.68156901,104.243164 C4.76573901,107.290164 6.08056901,110.496164 7.44626901,112.553164 C7.75493901,118.297164 9.22875901,126.649164 12.756039,133.839164 C16.411739,141.290164 22.498239,147.886164 32.092139,148.413164 L32.188339,148.418164 L32.284639,148.414164 C34.170139,148.338164 36.995239,147.654164 38.853639,145.515164 C40.531439,143.585164 41.064839,140.915164 40.123539,137.593164 L43.837739,136.627164 C43.577439,137.967164 43.339139,139.416164 43.187339,140.791164 C43.042339,142.103164 42.966039,143.434164 43.051639,144.566164 C43.094539,145.131164 43.182239,145.723164 43.360339,146.269164 C43.530839,146.792164 43.847139,147.472164 44.480139,147.977164 C45.192039,148.544164 46.331339,149.145164 47.600739,149.664164 C48.910539,150.199164 50.503939,150.707164 52.200739,151.029164 C55.473639,151.650164 59.694939,151.681164 62.769339,149.128164 C65.251439,147.067164 67.431239,144.479164 68.148239,141.819164 C68.333139,141.135164 68.425939,140.420164 68.389439,139.702164 C68.397539,139.704164 68.405539,139.707164 68.413639,139.709164 L68.964039,139.866164 L69.514339,139.709164 C71.167139,139.238164 73.539439,138.107164 75.531739,136.178164 C77.561439,134.214164 79.250239,131.359164 79.250239,127.559164 C79.250239,125.687164 78.818639,124.095164 77.882839,122.876164 C76.935239,121.641164 75.645439,121.017164 74.376339,120.765164 C73.610639,120.612164 72.821939,120.587164 72.051139,120.647164 C73.075139,117.864164 74.003239,114.463164 74.415839,110.885164 C74.941939,106.320164 74.650239,101.251164 72.430639,96.8127642 C79.920139,95.1672642 89.585639,91.9261642 97.155739,86.8419642 C101.454239,83.9549642 105.205239,80.3878642 107.432239,76.0528642 C109.690239,71.6576642 110.316239,66.5921642 108.531239,60.9440642 C107.453239,57.4074642 103.124239,50.9541642 94.052039,49.5469642 C94.055939,45.7355642 93.332939,40.6204642 91.175639,35.6490642 C88.882639,30.3662642 84.935239,25.1851642 78.490839,21.9920642 C78.659639,21.9760642 78.831339,21.9523642 79.003039,21.9232642 C79.581839,21.8249642 80.262739,21.6457642 80.981439,21.3805642 C82.406039,20.8549642 84.134339,19.9338642 85.547439,18.4531642 C86.992939,16.9391642 88.088139,14.8546642 88.160139,12.1539642 C88.231439,9.49836416 87.308739,6.45577416 85.140839,2.97677416 L85.018739,2.78101416 L84.856339,2.61781416 C83.271439,1.02828416 80.391239,-0.325042841 76.701539,0.0689801595 C72.996239,0.464654159 68.680739,2.59080416 64.064639,7.56301416 L64.043439,7.58590416 L64.023139,7.60943416 C62.218539,9.67796416 58.385639,14.8591642 56.671439,20.0961642 C54.953739,20.2654642 52.778639,20.5381642 50.689139,20.9162642 C49.334539,21.1613642 47.981139,21.4568642 46.796439,21.8080642 C46.218139,21.9793642 45.630439,22.1778642 45.079639,22.4123642 C41.136039,19.1242642 35.149539,15.3032642 28.750139,13.5827642 C21.663839,11.6775642 13.747339,12.3056642 7.87534901,19.4835642 L7.75451901,19.6311642 L7.66334901,19.7988642 C6.67839901,21.6094642 5.83294901,24.5711642 6.62794901,27.6246642 C7.46406901,30.8347642 9.99193901,33.6957642 14.895539,35.3352642 L14.924739,35.3446642 L14.954039,35.3535642 C16.952739,35.9551642 21.333539,35.7626642 26.630139,32.6086642 C27.255139,32.6619642 28.064539,32.8086642 28.965539,33.0977642 Z" id="Shape" fill="#0F3E4D"></path>
            <path d="M64.456939,42.5457642 C58.435639,44.8989642 61.647039,55.4866642 64.456939,58.6238642 C63.654239,55.8788642 62.771139,50.0755642 65.661039,48.8205642 C68.551539,47.5654642 70.344139,51.4344642 70.879639,53.5260642 C69.916339,43.4870642 66.196539,42.0229642 64.456939,42.5457642 Z" id="Path" fill="#0F3E4D" fill-rule="nonzero"></path>
            <path d="M81.090839,40.7105642 C77.259139,42.0177642 79.302839,47.8999642 81.090839,49.6425642 C80.579939,48.1178642 80.018139,44.8933642 81.857039,44.1962642 C83.696339,43.4992642 84.837339,45.6484642 85.177839,46.8106642 C84.565139,41.2333642 82.197939,40.4201642 81.090839,40.7105642 Z" id="Path" fill="#0F3E4D" fill-rule="nonzero"></path>
            <path d="M89.251939,61.4609642 C93.743839,58.6443642 96.114339,59.5050642 96.738539,60.2873642 C98.235639,61.4609642 98.610039,68.8941642 93.369439,70.0677642 C89.176839,71.0068642 86.381839,68.8941642 85.508439,67.7204642 C84.884739,66.8075642 84.759639,64.2775642 89.251939,61.4609642 Z" id="Path" fill="#0F3E4D" fill-rule="nonzero"></path>
            <path d="M37.797539,135.876164 C35.437539,135.457164 30.344839,133.612164 28.854539,129.588164" id="Path" stroke="#0F3E4D" stroke-width="2.3097" stroke-linecap="round"></path>
        </g>
    </g>
</svg>