<?xml version="1.0" encoding="UTF-8"?>
<svg width="179px" height="115px" viewBox="0 0 179 115" version="1.1" xmlns="http://www.w3.org/2000/svg" xmlns:xlink="http://www.w3.org/1999/xlink">
    <title>Primary%20Logo%20_%20Horizontal</title>
    <g id="Page-1" stroke="none" stroke-width="1" fill="none" fill-rule="evenodd">
        <g id="Primary%20Logo%20_%20Horizontal" transform="translate(0.994148, 0.000000)" fill-rule="nonzero">
            <g id="Group">
                <path d="M159.458852,79.3816 C159.458852,104.708 128.548852,115 90.1707523,115 C51.7922523,115 20.4326523,104.708 20.4326523,79.3816 C20.4326523,54.0547 51.5673523,33.5605 89.9458523,33.5605 C128.323852,33.5605 159.458852,54.0995 159.458852,79.3816 Z" id="Path" fill="#4BAF74"></path>
                <path d="M152.395852,24.1634 C152.395852,10.8288 141.506852,0 128.099852,0 C120.540852,0 113.791852,3.44553 109.337852,8.81518 C103.263852,7.47276 96.7848523,6.71206 90.0810523,6.71206 C83.3771523,6.71206 76.8982523,7.42802 70.8242523,8.81518 C66.3250523,3.44553 59.5762523,0 52.0624523,0 C38.6547523,0 27.7665523,10.8288 27.7665523,24.1634 C27.7665523,28.5486 28.9363523,32.6206 30.9610523,36.1556 C29.0263523,40.2724 27.9915523,44.6576 27.9915523,49.2218 C27.9915523,72.714 55.7968523,91.7315 90.0810523,91.7315 C124.364852,91.7315 152.170852,72.714 152.170852,49.2218 C152.170852,44.6576 151.135852,40.2724 149.200852,36.1556 C151.225852,32.6206 152.395852,28.5486 152.395852,24.1634 Z" id="Path" fill="#32DA6D"></path>
                <path d="M50.1277523,37.5878 C58.3277523,37.5878 64.9752523,30.9766 64.9752523,22.8212 C64.9752523,14.6659 58.3277523,8.05469 50.1277523,8.05469 C41.9277523,8.05469 35.2802523,14.6659 35.2802523,22.8212 C35.2802523,30.9766 41.9277523,37.5878 50.1277523,37.5878 Z" id="Path" fill="#F1F1E8"></path>
                <path d="M129.313852,37.5878 C137.513852,37.5878 144.161852,30.9766 144.161852,22.8212 C144.161852,14.6659 137.513852,8.05469 129.313852,8.05469 C121.113852,8.05469 114.466852,14.6659 114.466852,22.8212 C114.466852,30.9766 121.113852,37.5878 129.313852,37.5878 Z" id="Path" fill="#F1F1E8"></path>
                <path d="M42.2082523,113.21 C45.4027523,113.21 47.9222523,110.436 47.5623523,107.304 C46.2575523,96.2064 40.7235523,72.1772 16.3826523,57.7239 C-16.0118477,38.4827 9.63379231,104.708 9.63379231,104.708 L2.92993231,108.557 C0.68030931,109.854 1.62515231,113.21 4.18971231,113.21 L42.2082523,113.21 Z" id="Path" fill="#32DA6D"></path>
                <path d="M138.897852,113.21 C136.017852,113.21 133.767852,110.436 134.082852,107.304 C135.207852,96.2512 140.246852,72.1772 162.203852,57.7239 C191.493852,38.4827 168.322852,104.708 168.322852,104.708 L174.395852,108.557 C176.420852,109.854 175.565852,113.21 173.271852,113.21 L138.897852,113.21 Z" id="Path" fill="#32DA6D"></path>
                <path d="M50.1272523,25.5059 C51.6181523,25.5059 52.8268523,24.3038 52.8268523,22.8211 C52.8268523,21.3383 51.6181523,20.1362 50.1272523,20.1362 C48.6363523,20.1362 47.4277523,21.3383 47.4277523,22.8211 C47.4277523,24.3038 48.6363523,25.5059 50.1272523,25.5059 Z" id="Path" fill="#0D0D0D"></path>
                <path d="M129.313852,25.5059 C130.804852,25.5059 132.012852,24.3038 132.012852,22.8211 C132.012852,21.3383 130.804852,20.1362 129.313852,20.1362 C127.822852,20.1362 126.613852,21.3383 126.613852,22.8211 C126.613852,24.3038 127.822852,25.5059 129.313852,25.5059 Z" id="Path" fill="#0D0D0D"></path>
            </g>
        </g>
    </g>
</svg>